<svg width="24" height="24" viewBox="0 0 24 24" fill="none" xmlns="http://www.w3.org/2000/svg">
<path d="M8.95755 8.14107C9.06746 8.07603 9.19633 8.0506 9.32271 8.06899L9.32135 8.06831C9.43904 8.09082 9.545 8.15416 9.62055 8.24715C9.96697 8.64228 10.2738 9.07047 10.5365 9.52555C10.7086 9.83019 10.597 10.1389 10.4366 10.2695L10.102 10.5388C9.92995 10.6693 9.95307 10.925 9.95307 10.925C9.95307 10.925 10.4488 12.8052 12.3059 13.2792L12.3127 13.2751C12.3127 13.2751 12.5616 13.2982 12.6989 13.1309L12.9662 12.7936C13.0913 12.6264 13.4007 12.5264 13.7053 12.6916C14.16 12.9561 14.5883 13.2635 14.9844 13.6096C15.1816 13.7749 15.2278 14.0183 15.0912 14.2767V14.2815C14.9456 14.5378 14.7586 14.7684 14.5376 14.9642C14.3567 15.1286 14.1259 15.2277 13.8821 15.2457C13.8053 15.2457 13.7291 15.2342 13.6455 15.2083V15.2042C13.3592 15.1199 12.8825 14.918 12.0971 14.4902C11.4101 14.1102 10.7743 13.6441 10.2054 13.103L10.1863 13.0867L10.1707 13.0684L10.1448 13.0493L10.1285 13.0262C9.58911 12.4592 9.12514 11.825 8.74811 11.1392C8.45571 10.651 8.21635 10.1321 8.03275 9.59287L8.02051 9.58607C7.98855 9.48203 7.97903 9.37187 7.99263 9.26307C8.01575 9.07947 8.10415 8.88907 8.26735 8.70071C8.46319 8.47903 8.69303 8.29067 8.94803 8.14107H8.95755Z" fill="white"/>
<path d="M12.2198 7.35122C12.2836 7.28745 12.3701 7.25163 12.4602 7.25163C13.4843 7.25163 14.3717 7.59299 15.0728 8.26279L15.0796 8.26959C15.4359 8.62939 15.7145 9.05848 15.8983 9.53031C16.0813 9.99991 16.1649 10.5024 16.1438 11.0059C16.14 11.0961 16.1005 11.1811 16.0341 11.2421C15.9677 11.3032 15.8797 11.3354 15.7895 11.3316C15.6993 11.3278 15.6144 11.2884 15.5533 11.222C15.523 11.1891 15.4996 11.1505 15.4842 11.1086C15.4689 11.0666 15.4619 11.022 15.4638 10.9774C15.4815 10.568 15.4135 10.1593 15.2646 9.77647C15.1163 9.39431 14.8899 9.04547 14.5995 8.75103C14.0344 8.21247 13.3204 7.93163 12.4602 7.93163C12.3701 7.93163 12.2836 7.89581 12.2198 7.83205C12.1561 7.76829 12.1202 7.68181 12.1202 7.59163C12.1202 7.50146 12.1561 7.41498 12.2198 7.35122Z" fill="white"/>
<path d="M12.1967 8.46914C12.2605 8.40537 12.3469 8.36955 12.4371 8.36955L12.4711 8.36887L12.4827 8.37023C13.2429 8.42123 13.8746 8.68235 14.335 9.17603V9.17739C14.7852 9.66291 15.0123 10.2715 14.996 10.9767C14.9939 11.0668 14.9561 11.1525 14.8908 11.2148C14.8256 11.2771 14.7383 11.3109 14.6481 11.3089C14.558 11.3068 14.4723 11.269 14.41 11.2037C14.3477 11.1385 14.3139 11.0512 14.316 10.961C14.3289 10.4238 14.1609 9.98931 13.8366 9.63979C13.5204 9.30047 13.0688 9.09375 12.4487 9.04955H12.4371C12.3469 9.04955 12.2605 9.01373 12.1967 8.94997C12.1329 8.88621 12.0971 8.79973 12.0971 8.70955C12.0971 8.61938 12.1329 8.5329 12.1967 8.46914Z" fill="white"/>
<path d="M12.2894 9.52383C12.3328 9.50973 12.3787 9.50454 12.4242 9.50855C12.8308 9.53031 13.1892 9.65951 13.4524 9.92471C13.7142 10.1899 13.842 10.5503 13.8638 10.9583C13.8677 11.0038 13.8625 11.0496 13.8485 11.093C13.8344 11.1364 13.8117 11.1765 13.7818 11.211C13.7518 11.2454 13.7153 11.2735 13.6743 11.2935C13.6333 11.3136 13.5887 11.3251 13.5431 11.3276C13.4975 11.33 13.4519 11.3232 13.409 11.3076C13.3661 11.292 13.3268 11.268 13.2934 11.2369C13.26 11.2058 13.2332 11.1683 13.2146 11.1266C13.196 11.085 13.186 11.04 13.1851 10.9944C13.1695 10.704 13.0838 10.5184 12.9689 10.4028C12.8546 10.2878 12.6731 10.2022 12.3888 10.1872C12.3432 10.1865 12.2981 10.1765 12.2564 10.158C12.2146 10.1395 12.177 10.1127 12.1458 10.0793C12.1147 10.0459 12.0905 10.0066 12.0749 9.9637C12.0592 9.92079 12.0524 9.87516 12.0548 9.82954C12.0571 9.78393 12.0687 9.73926 12.0887 9.6982C12.1087 9.65715 12.1368 9.62055 12.1713 9.59059C12.2058 9.56063 12.2459 9.53792 12.2894 9.52383Z" fill="white"/>
<path fill-rule="evenodd" clip-rule="evenodd" d="M0 12C0 5.376 5.376 0 12 0C18.624 0 24 5.376 24 12C24 18.624 18.624 24 12 24C5.376 24 0 18.624 0 12ZM8.74879 5.63867C10.8882 5.16044 13.1068 5.16044 15.2462 5.63867L15.4767 5.69035C16.0786 5.82479 16.6315 6.12348 17.0738 6.55323C17.5162 6.98299 17.8307 7.52698 17.9825 8.12475C18.5248 10.2617 18.5248 12.5002 17.9825 14.6371C17.8308 15.2348 17.5164 15.7787 17.0741 16.2085C16.6319 16.6382 16.0792 16.937 15.4774 17.0715L15.2462 17.1225C13.8832 17.4273 12.4841 17.5387 11.09 17.4537L9.23295 19.1149C9.1876 19.1554 9.13223 19.183 9.0726 19.1948C9.01298 19.2066 8.95127 19.2022 8.89392 19.1821C8.83657 19.1619 8.78566 19.1268 8.7465 19.0803C8.70734 19.0338 8.68137 18.9777 8.67127 18.9177L8.35507 17.03C7.78835 16.8729 7.27323 16.5688 6.86195 16.1484C6.45067 15.7281 6.15784 15.2064 6.01315 14.6364C5.47085 12.4995 5.47085 10.261 6.01315 8.12407C6.16487 7.52638 6.47931 6.98245 6.92154 6.5527C7.36377 6.12296 7.91648 5.82422 8.51827 5.68967L8.74879 5.63867Z" fill="white"/>
</svg>
