<svg width="80" height="80" viewBox="0 0 80 80" fill="none" xmlns="http://www.w3.org/2000/svg">
<path d="M49.0667 29.3001L34.7667 43.6334L29.2667 38.1334C28.9678 37.7845 28.6001 37.5011 28.1866 37.301C27.773 37.1009 27.3226 36.9885 26.8635 36.9708C26.4045 36.953 25.9467 37.0304 25.5189 37.198C25.0912 37.3655 24.7027 37.6197 24.3778 37.9446C24.053 38.2694 23.7988 38.6579 23.6312 39.0857C23.4636 39.5134 23.3863 39.9712 23.404 40.4303C23.4217 40.8893 23.5342 41.3398 23.7343 41.7533C23.9343 42.1669 24.2177 42.5346 24.5667 42.8334L32.4 50.7001C32.7115 51.009 33.0809 51.2534 33.487 51.4193C33.8931 51.5852 34.328 51.6693 34.7667 51.6668C35.6411 51.6631 36.4791 51.3159 37.1 50.7001L53.7667 34.0334C54.0791 33.7235 54.3271 33.3549 54.4963 32.9487C54.6655 32.5425 54.7527 32.1068 54.7527 31.6667C54.7527 31.2267 54.6655 30.791 54.4963 30.3848C54.3271 29.9786 54.0791 29.61 53.7667 29.3001C53.1421 28.6792 52.2973 28.3308 51.4167 28.3308C50.5361 28.3308 49.6912 28.6792 49.0667 29.3001ZM40 6.66675C33.4073 6.66675 26.9626 8.62171 21.481 12.2844C15.9994 15.9471 11.7269 21.1531 9.20402 27.244C6.6811 33.3348 6.02099 40.0371 7.30716 46.5031C8.59334 52.9691 11.768 58.9086 16.4298 63.5703C21.0915 68.2321 27.031 71.4068 33.497 72.6929C39.963 73.9791 46.6653 73.319 52.7561 70.7961C58.847 68.2732 64.0529 64.0007 67.7157 58.5191C71.3784 53.0375 73.3333 46.5928 73.3333 40.0001C73.3333 35.6227 72.4712 31.2882 70.796 27.244C69.1208 23.1998 66.6655 19.5251 63.5702 16.4299C60.4749 13.3346 56.8003 10.8793 52.7561 9.2041C48.7119 7.52894 44.3774 6.66675 40 6.66675ZM40 66.6668C34.7258 66.6668 29.5701 65.1028 25.1848 62.1726C20.7995 59.2424 17.3816 55.0777 15.3632 50.205C13.3449 45.3323 12.8168 39.9705 13.8457 34.7977C14.8747 29.6248 17.4144 24.8733 21.1438 21.1439C24.8732 17.4145 29.6248 14.8747 34.7976 13.8458C39.9704 12.8169 45.3322 13.345 50.2049 15.3633C55.0776 17.3816 59.2424 20.7996 62.1725 25.1849C65.1027 29.5702 66.6667 34.7259 66.6667 40.0001C66.6667 47.0725 63.8572 53.8553 58.8562 58.8563C53.8552 63.8572 47.0724 66.6668 40 66.6668Z" fill="#6ABC23"/>
</svg>
