<svg width="16" height="16" viewBox="0 0 16 16" fill="none" xmlns="http://www.w3.org/2000/svg">
<path fill-rule="evenodd" clip-rule="evenodd" d="M8 0C12.4184 0 16 3.5816 16 8C16 11.44 13.8288 14.3728 10.7824 15.5024C10.7309 15.5307 10.6764 15.5532 10.62 15.5696L10.544 15.5872C9.72392 15.8615 8.86475 16.001 8 16C3.5816 16 0 12.4184 0 8C0 3.5816 3.5816 0 8 0ZM10.328 2.0368L10.1872 2.7416C10.0964 3.19521 9.87654 3.61293 9.55393 3.94448C9.23132 4.27603 8.81977 4.50728 8.3688 4.6104L8.048 4.684C7.84901 4.72937 7.67489 4.84907 7.56127 5.01861C7.44765 5.18815 7.40312 5.3947 7.4368 5.596L7.5768 6.4344C7.6214 6.70314 7.59665 6.97881 7.5049 7.23531C7.41314 7.4918 7.25741 7.72062 7.05247 7.90009C6.84752 8.07955 6.60015 8.20372 6.33379 8.26082C6.06743 8.31793 5.7909 8.30608 5.5304 8.2264L4.4984 7.9112C4.00684 7.76093 3.57651 7.45682 3.27076 7.04364C2.96501 6.63045 2.79999 6.13001 2.8 5.616V4.268C2.04263 5.32254 1.6239 6.5825 1.5994 7.8806C1.5749 9.17871 1.94579 10.4536 2.66283 11.5359C3.37987 12.6183 4.40914 13.457 5.61402 13.9407C6.8189 14.4244 8.14239 14.5301 9.4088 14.244L8.9448 12.6184C8.90727 12.4877 8.83706 12.3688 8.7408 12.2728L7.7504 11.2816C7.63103 11.1623 7.53817 11.0192 7.47788 10.8615C7.41759 10.7039 7.39122 10.5353 7.40051 10.3668C7.4098 10.1983 7.45452 10.0336 7.53177 9.88358C7.60902 9.73353 7.71704 9.60146 7.8488 9.496L9.1008 8.4952C9.33949 8.30425 9.62787 8.18568 9.93184 8.15349C10.2358 8.12131 10.5426 8.17687 10.816 8.3136L11.992 8.9016C12.3453 9.0783 12.6496 9.3395 12.8778 9.66201C13.106 9.98453 13.251 10.3584 13.3 10.7504L13.388 11.4552C13.8992 10.6577 14.2271 9.75661 14.348 8.81704C14.4688 7.87746 14.3797 6.92277 14.087 6.02181C13.7943 5.12085 13.3053 4.29608 12.6552 3.60696C12.0052 2.91785 11.2104 2.38157 10.328 2.0368ZM10.1 9.7448L9.1976 10.4664L9.8728 11.1408C10.1193 11.3876 10.309 11.6852 10.4288 12.0128L10.4832 12.1792L10.9176 13.6976C11.1976 13.5536 11.4664 13.3896 11.7208 13.208L11.9712 13.0192L11.7128 10.9488C11.6985 10.8348 11.6598 10.7251 11.5993 10.6274C11.5389 10.5297 11.4581 10.4461 11.3624 10.3824L11.276 10.3328L10.1 9.7448ZM8 1.6C6.71377 1.59799 5.45707 1.98538 4.3952 2.7112C4.3984 2.74 4.4 2.7696 4.4 2.8V5.616C4.39985 5.78736 4.45472 5.95424 4.55655 6.09207C4.65837 6.2299 4.80176 6.33139 4.9656 6.3816L5.9984 6.6968L5.8584 5.8584C5.75778 5.25487 5.89147 4.63571 6.23213 4.12746C6.5728 3.61922 7.09471 3.26027 7.6912 3.124L8.012 3.0512C8.16251 3.0168 8.29985 2.93957 8.40745 2.82885C8.51505 2.71813 8.58832 2.57863 8.6184 2.4272L8.7752 1.6464C8.51796 1.61541 8.2591 1.59992 8 1.6Z" fill="#94887D"/>
</svg>
