<svg width="15" height="18" viewBox="0 0 15 18" fill="none" xmlns="http://www.w3.org/2000/svg">
<path d="M14.075 5.26655C14.0703 5.24458 14.0703 5.22185 14.075 5.19988C14.071 5.18065 14.071 5.16078 14.075 5.14155V5.06655L14.025 4.94155C14.0047 4.90744 13.9794 4.87655 13.95 4.84988L13.875 4.78322H13.8333L10.55 2.70822L7.45 0.791551C7.37827 0.734659 7.29621 0.692209 7.20833 0.666551H7.14166C7.06718 0.654118 6.99115 0.654118 6.91666 0.666551H6.83333C6.73653 0.687961 6.64372 0.724523 6.55833 0.774884L0.333329 4.64988L0.258329 4.70822L0.183329 4.77488L0.0999958 4.83322L0.0583292 4.88322L0.00832899 5.00822V5.08322V5.13322C0.000234736 5.18848 0.000234736 5.24462 0.00832899 5.29988V12.5749C0.0080456 12.7165 0.0438591 12.8559 0.112388 12.9798C0.180918 13.1037 0.279902 13.2082 0.399996 13.2832L6.65 17.1499L6.775 17.1999H6.84166C6.98265 17.2446 7.13401 17.2446 7.275 17.1999H7.34166L7.46666 17.1499L13.6667 13.3415C13.7868 13.2665 13.8857 13.1621 13.9543 13.0381C14.0228 12.9142 14.0586 12.7748 14.0583 12.6332V5.35822C14.0583 5.35822 14.075 5.29988 14.075 5.26655ZM7 2.47488L8.48333 3.39155L3.825 6.27488L2.33333 5.35822L7 2.47488ZM6.16666 14.9749L1.58333 12.1749V6.84988L6.16666 9.68322V14.9749ZM7 8.21655L5.40833 7.25822L10.0667 4.36655L11.6667 5.35822L7 8.21655ZM12.4167 12.1499L7.83333 14.9999V9.68322L12.4167 6.84988V12.1499Z" fill="#94887D"/>
</svg>
