<svg width="36" height="36" viewBox="0 0 36 36" fill="none" xmlns="http://www.w3.org/2000/svg">
<path d="M13.4363 12.2116C13.6012 12.1141 13.7945 12.0759 13.9841 12.1035L13.982 12.1025C14.1586 12.1362 14.3175 12.2312 14.4308 12.3707C14.9505 12.9634 15.4106 13.6057 15.8048 14.2883C16.0628 14.7453 15.8955 15.2084 15.6548 15.4042L15.153 15.8081C14.8949 16.004 14.9296 16.3875 14.9296 16.3875C14.9296 16.3875 15.6732 19.2078 18.4588 19.9187L18.469 19.9126C18.469 19.9126 18.8423 19.9473 19.0484 19.6964L19.4492 19.1904C19.6369 18.9395 20.101 18.7896 20.558 19.0374C21.24 19.4342 21.8824 19.8953 22.4766 20.4144C22.7724 20.6623 22.8417 21.0275 22.6367 21.4151V21.4222C22.4184 21.8067 22.1379 22.1525 21.8064 22.4463C21.535 22.6929 21.1889 22.8415 20.8232 22.8686C20.7079 22.8686 20.5937 22.8512 20.4682 22.8125V22.8063C20.0388 22.6799 19.3238 22.3769 18.1457 21.7353C17.1151 21.1654 16.1615 20.4661 15.308 19.6545L15.2795 19.6301L15.256 19.6025L15.2172 19.574L15.1928 19.5393C14.3837 18.6888 13.6877 17.7374 13.1222 16.7088C12.6836 15.9764 12.3245 15.1982 12.0491 14.3893L12.0308 14.3791C11.9828 14.223 11.9685 14.0578 11.9889 13.8946C12.0236 13.6192 12.1562 13.3336 12.401 13.0511C12.6948 12.7185 13.0395 12.436 13.422 12.2116H13.4363Z" fill="#6ABC23"/>
<path d="M18.3297 11.0268C18.4254 10.9312 18.5551 10.8774 18.6903 10.8774C20.2265 10.8774 21.5576 11.3895 22.6092 12.3942L22.6194 12.4044C23.1538 12.9441 23.5718 13.5877 23.8475 14.2955C24.1219 14.9999 24.2473 15.7535 24.2157 16.5089C24.21 16.6441 24.1508 16.7716 24.0512 16.8632C23.9515 16.9548 23.8195 17.0031 23.6843 16.9974C23.549 16.9918 23.4215 16.9326 23.3299 16.8329C23.2845 16.7836 23.2493 16.7258 23.2263 16.6628C23.2033 16.5999 23.1929 16.533 23.1957 16.466C23.2222 15.852 23.1202 15.239 22.8968 14.6647C22.6745 14.0915 22.3348 13.5682 21.8993 13.1265C21.0516 12.3187 19.9806 11.8974 18.6903 11.8974C18.5551 11.8974 18.4254 11.8437 18.3297 11.7481C18.2341 11.6524 18.1803 11.5227 18.1803 11.3874C18.1803 11.2522 18.2341 11.1225 18.3297 11.0268Z" fill="#6ABC23"/>
<path d="M18.295 12.7037C18.3907 12.6081 18.5204 12.5543 18.6557 12.5543L18.7067 12.5533L18.724 12.5553C19.8644 12.6318 20.8119 13.0235 21.5025 13.764V13.7661C22.1777 14.4944 22.5184 15.4073 22.4939 16.465C22.4908 16.6003 22.4341 16.7288 22.3363 16.8222C22.2384 16.9156 22.1075 16.9664 21.9722 16.9633C21.8369 16.9602 21.7085 16.9035 21.615 16.8056C21.5216 16.7078 21.4708 16.5768 21.4739 16.4415C21.4933 15.6357 21.2414 14.984 20.7548 14.4597C20.2805 13.9507 19.6032 13.6406 18.673 13.5743H18.6557C18.5204 13.5743 18.3907 13.5206 18.295 13.425C18.1994 13.3293 18.1457 13.1996 18.1457 13.0643C18.1457 12.9291 18.1994 12.7993 18.295 12.7037Z" fill="#6ABC23"/>
<path d="M18.4341 14.2857C18.4993 14.2646 18.568 14.2568 18.6363 14.2628C19.2462 14.2955 19.7838 14.4893 20.1785 14.8871C20.5712 15.2849 20.763 15.8255 20.7956 16.4375C20.8016 16.5057 20.7938 16.5744 20.7727 16.6395C20.7515 16.7046 20.7175 16.7648 20.6726 16.8165C20.6278 16.8681 20.5729 16.9103 20.5114 16.9403C20.4499 16.9703 20.383 16.9877 20.3146 16.9913C20.2463 16.995 20.1779 16.9848 20.1135 16.9614C20.0492 16.9381 19.9902 16.902 19.9401 16.8554C19.89 16.8087 19.8498 16.7525 19.8219 16.69C19.794 16.6275 19.7789 16.56 19.7777 16.4915C19.7542 16.056 19.6257 15.7775 19.4533 15.6041C19.2819 15.4317 19.0096 15.3032 18.5832 15.2808C18.5147 15.2797 18.4472 15.2648 18.3845 15.237C18.3219 15.2092 18.2655 15.1691 18.2188 15.119C18.172 15.0689 18.1358 15.0099 18.1123 14.9456C18.0888 14.8812 18.0786 14.8127 18.0822 14.7443C18.0857 14.6759 18.103 14.6089 18.1331 14.5473C18.1631 14.4857 18.2052 14.4308 18.257 14.3859C18.3087 14.3409 18.3689 14.3069 18.4341 14.2857Z" fill="#6ABC23"/>
<path fill-rule="evenodd" clip-rule="evenodd" d="M0 18C0 8.064 8.064 0 18 0C27.936 0 36 8.064 36 18C36 27.936 27.936 36 18 36C8.064 36 0 27.936 0 18ZM13.1232 8.45801C16.3323 7.74066 19.6602 7.74066 22.8693 8.45801L23.2151 8.53553C24.1179 8.73718 24.9472 9.18521 25.6108 9.82985C26.2743 10.4745 26.7461 11.2905 26.9738 12.1871C27.7871 15.3925 27.7871 18.7503 26.9738 21.9557C26.7462 22.8522 26.2745 23.6681 25.6112 24.3127C24.9478 24.9573 24.1188 25.4055 23.2161 25.6073L22.8693 25.6838C20.8248 26.1409 18.7261 26.3081 16.635 26.1805L13.8494 28.6724C13.7814 28.7331 13.6983 28.7745 13.6089 28.7922C13.5195 28.8099 13.4269 28.8033 13.3409 28.7731C13.2549 28.7429 13.1785 28.6902 13.1198 28.6204C13.061 28.5507 13.022 28.4665 13.0069 28.3766L12.5326 25.545C11.6825 25.3094 10.9099 24.8532 10.2929 24.2227C9.676 23.5921 9.23676 22.8097 9.01973 21.9546C8.20628 18.7493 8.20628 15.3915 9.01973 12.1861C9.24731 11.2896 9.71897 10.4737 10.3823 9.82906C11.0457 9.18444 11.8747 8.73633 12.7774 8.53451L13.1232 8.45801Z" fill="#6ABC23"/>
</svg>
