<svg width="48" height="48" viewBox="0 0 48 48" fill="none" xmlns="http://www.w3.org/2000/svg">
<path d="M31.0001 4C32.0318 3.99989 33.0508 4.22784 33.9841 4.66753C34.9174 5.10722 35.742 5.74778 36.3989 6.54337C37.0557 7.33896 37.5286 8.26991 37.7836 9.2696C38.0386 10.2693 38.0695 11.313 37.8741 12.326L37.8441 12.458C39.5841 13.0384 41.1053 14.1364 42.2042 15.605C43.3031 17.0736 43.9272 18.8428 43.9931 20.6758C44.059 22.5089 43.5635 24.3183 42.5729 25.862C41.5823 27.4058 40.1439 28.6101 38.4501 29.314L36.2781 42.328C36.2005 42.795 35.9597 43.2193 35.5986 43.5255C35.2375 43.8316 34.7795 43.9998 34.3061 44H13.6941C13.2207 43.9998 12.7627 43.8316 12.4016 43.5255C12.0405 43.2193 11.7998 42.795 11.7221 42.328L9.66411 29.988C8.27996 29.9095 6.96572 29.3541 5.94476 28.4161C4.92381 27.4782 4.25916 26.2157 4.06379 24.8432C3.86842 23.4706 4.15439 22.0728 4.87308 20.8872C5.59178 19.7017 6.69885 18.8016 8.00611 18.34L8.00011 18C7.99972 15.9749 8.51182 13.9827 9.48874 12.2088C10.4657 10.4349 11.8756 8.93713 13.5873 7.85491C15.2989 6.77269 17.2566 6.14125 19.278 6.0194C21.2995 5.89754 23.3188 6.28924 25.1481 7.158C25.7847 6.18717 26.653 5.39012 27.6747 4.83879C28.6963 4.28745 29.8392 3.99919 31.0001 4ZM18.0001 30H13.7201L15.3881 40H18.0001V30ZM26.0001 30H22.0001V40H26.0001V30ZM34.2781 30H30.0001V40H32.6101L34.2781 30ZM20.0001 10C15.7161 10 12.2181 13.368 12.0101 17.534L12.0001 17.928L12.0061 18.268C12.0203 19.0534 11.8029 19.8255 11.381 20.4881C10.9592 21.1507 10.3516 21.6744 9.63411 21.994L9.33411 22.112C8.89002 22.2701 8.51598 22.5799 8.27786 22.9867C8.03973 23.3936 7.95281 23.8714 8.0324 24.336C8.11199 24.8007 8.35299 25.2223 8.71294 25.5267C9.07289 25.8311 9.52871 25.9987 10.0001 26H35.0001C35.7394 26 36.4694 25.8361 37.1377 25.52C37.806 25.204 38.3959 24.7437 38.8649 24.1723C39.3339 23.6008 39.6704 22.9325 39.8501 22.2155C40.0298 21.4984 40.0483 20.7504 39.9042 20.0253C39.76 19.3002 39.457 18.6161 39.0167 18.0223C38.5764 17.4284 38.01 16.9396 37.3581 16.5909C36.7062 16.2423 35.9851 16.0426 35.2468 16.0061C34.5084 15.9696 33.7712 16.0973 33.0881 16.38L32.7381 16.542C31.8152 17.0175 30.7436 17.1157 29.7498 16.8156C28.7559 16.5155 27.9176 15.8408 27.4121 14.934L27.2721 14.66C26.6329 13.2689 25.608 12.0903 24.319 11.2643C23.03 10.4383 21.5311 9.99951 20.0001 10ZM31.0001 8C30.4817 7.99989 29.972 8.13415 29.5209 8.38967C29.0698 8.6452 28.6926 9.01328 28.4261 9.458C29.4588 10.4748 30.299 11.67 30.9061 12.986C31.8112 12.5209 32.7894 12.2144 33.7981 12.08C33.9735 11.6256 34.0355 11.1353 33.9789 10.6515C33.9224 10.1677 33.7488 9.705 33.4734 9.3033C33.1979 8.9016 32.8287 8.57302 32.3978 8.34595C31.9669 8.11888 31.4872 8.00014 31.0001 8Z" fill="#6E3708"/>
</svg>
