<svg width="48" height="48" viewBox="0 0 48 48" fill="none" xmlns="http://www.w3.org/2000/svg">
<path fill-rule="evenodd" clip-rule="evenodd" d="M7.75736 21.7574C8.88258 20.6321 10.4087 20 12 20H36C37.5913 20 39.1174 20.6321 40.2426 21.7574C41.3679 22.8826 42 24.4087 42 26V42C42 43.1046 41.1046 44 40 44C38.8954 44 38 43.1046 38 42V26C38 25.4696 37.7893 24.9609 37.4142 24.5858C37.0391 24.2107 36.5304 24 36 24H12C11.4696 24 10.9609 24.2107 10.5858 24.5858C10.2107 24.9609 10 25.4696 10 26V42C10 43.1046 9.10457 44 8 44C6.89543 44 6 43.1046 6 42V26C6 24.4087 6.63214 22.8826 7.75736 21.7574Z" fill="#6E3708"/>
<path fill-rule="evenodd" clip-rule="evenodd" d="M12 8C12 6.89543 12.8954 6 14 6H14.02C15.1246 6 16.02 6.89543 16.02 8C16.02 9.10457 15.1246 10 14.02 10H14C12.8954 10 12 9.10457 12 8ZM22 8C22 6.89543 22.8954 6 24 6H24.02C25.1246 6 26.02 6.89543 26.02 8C26.02 9.10457 25.1246 10 24.02 10H24C22.8954 10 22 9.10457 22 8ZM32 8C32 6.89543 32.8954 6 34 6H34.02C35.1246 6 36.02 6.89543 36.02 8C36.02 9.10457 35.1246 10 34.02 10H34C32.8954 10 32 9.10457 32 8ZM14 14C15.1046 14 16 14.8954 16 16V20C16 21.1046 15.1046 22 14 22C12.8954 22 12 21.1046 12 20V16C12 14.8954 12.8954 14 14 14ZM24 14C25.1046 14 26 14.8954 26 16V20C26 21.1046 25.1046 22 24 22C22.8954 22 22 21.1046 22 20V16C22 14.8954 22.8954 14 24 14ZM34 14C35.1046 14 36 14.8954 36 16V20C36 21.1046 35.1046 22 34 22C32.8954 22 32 21.1046 32 20V16C32 14.8954 32.8954 14 34 14ZM9.76203 32.9462C9.25252 33.8962 8.07609 34.2741 7.10557 33.7889C6.11762 33.2949 5.71717 32.0935 6.21115 31.1056L8 32C6.21115 31.1056 6.21167 31.1045 6.21221 31.1035L6.2133 31.1013L6.21556 31.0968L6.22044 31.0872L6.23158 31.0657C6.23962 31.0504 6.24893 31.033 6.25953 31.0137C6.28073 30.9752 6.30719 30.9289 6.33925 30.8761C6.40327 30.7707 6.4903 30.6379 6.60313 30.4875C6.82812 30.1875 7.16127 29.8097 7.62561 29.4383C8.57967 28.675 10.0142 28 12 28C14.2183 28 15.9687 29.4082 17.0827 30.3044C17.14 30.3505 17.1955 30.3952 17.2494 30.4383C18.6473 31.5566 19.3323 32 20 32C20.6677 32 21.3527 31.5566 22.7506 30.4383C22.8045 30.3952 22.86 30.3505 22.9173 30.3044C24.0313 29.4082 25.7817 28 28 28C30.2183 28 31.9687 29.4082 33.0827 30.3044C33.14 30.3505 33.1955 30.3952 33.2494 30.4383C34.6473 31.5566 35.3323 32 36 32C37.0142 32 37.5797 31.675 37.8756 31.4383C38.0363 31.3097 38.1406 31.1875 38.1969 31.1125C38.2183 31.0839 38.2319 31.0634 38.238 31.0537C38.7476 30.1037 39.924 29.7259 40.8944 30.2111C41.8824 30.7051 42.2828 31.9065 41.7889 32.8944L40 32C41.7889 32.8944 41.7883 32.8955 41.7878 32.8965L41.7867 32.8987L41.7844 32.9032L41.7796 32.9128L41.7684 32.9343C41.7604 32.9496 41.7511 32.967 41.7405 32.9863C41.7193 33.0248 41.6928 33.0711 41.6607 33.1239C41.5967 33.2293 41.5097 33.3621 41.3969 33.5125C41.1719 33.8125 40.8387 34.1903 40.3744 34.5617C39.4203 35.325 37.9858 36 36 36C33.7817 36 32.0313 34.5918 30.9173 33.6956C30.86 33.6495 30.8045 33.6048 30.7506 33.5617C29.3527 32.4434 28.6677 32 28 32C27.3323 32 26.6473 32.4434 25.2494 33.5617C25.1955 33.6048 25.14 33.6495 25.0827 33.6956C23.9687 34.5918 22.2183 36 20 36C17.7817 36 16.0313 34.5918 14.9173 33.6956C14.86 33.6495 14.8045 33.6048 14.7506 33.5617C13.3527 32.4434 12.6677 32 12 32C10.9858 32 10.4203 32.325 10.1244 32.5617C9.96373 32.6903 9.85938 32.8125 9.80312 32.8875C9.78177 32.916 9.76824 32.9365 9.76203 32.9462ZM2 42C2 40.8954 2.89543 40 4 40H44C45.1046 40 46 40.8954 46 42C46 43.1046 45.1046 44 44 44H4C2.89543 44 2 43.1046 2 42Z" fill="#6E3708"/>
</svg>
