<svg width="48" height="48" viewBox="0 0 48 48" fill="none" xmlns="http://www.w3.org/2000/svg">
<path fill-rule="evenodd" clip-rule="evenodd" d="M40 6C38.4087 6 36.8826 6.63214 35.7574 7.75736C34.6321 8.88258 34 10.4087 34 12V14H36C37.5913 14 39.1174 13.3679 40.2426 12.2426C41.3679 11.1174 42 9.5913 42 8V6H40ZM30.8263 8.01968C31.322 6.87726 32.0313 5.82656 32.9289 4.92893C34.8043 3.05357 37.3478 2 40 2H44C45.1046 2 46 2.89543 46 4V8C46 10.6522 44.9464 13.1957 43.0711 15.0711C41.1957 16.9464 38.6522 18 36 18H32.8284L30.477 20.3514L30.4742 20.3542L22.477 28.3514L22.4742 28.3542L14.477 36.3514L14.4742 36.3542L11.4142 39.4142C11.4139 39.4145 11.4145 39.4139 11.4142 39.4142L5.41421 45.4142C4.63317 46.1953 3.36683 46.1953 2.58579 45.4142C1.80474 44.6332 1.80474 43.3668 2.58579 42.5858L7.17157 38L5.52579 36.3542L5.52301 36.3514C3.84283 34.6646 2.89948 32.3808 2.89948 30C2.89948 27.6192 3.84283 25.3354 5.52301 23.6486L8.58579 20.5858C9.2576 19.914 10.2885 19.82 11.0607 20.3039C11.3965 18.5539 12.2474 16.9292 13.523 15.6486L13.5258 15.6458L16.5858 12.5858C17.2576 11.914 18.2885 11.82 19.0607 12.3039C19.3965 10.5539 20.2474 8.92918 21.523 7.64857L21.5258 7.64579L24.5858 4.58579C24.9609 4.21071 25.4696 4 26 4C26.5304 4 27.0391 4.21071 27.4142 4.58579L30.477 7.64857C30.5972 7.76928 30.7137 7.89304 30.8263 8.01968ZM27.6444 17.5272C28.577 16.5902 29.1005 15.322 29.1005 14C29.1005 12.678 28.5769 11.4097 27.6443 10.4728C27.6439 10.4723 27.6448 10.4732 27.6443 10.4728L26 8.82843L24.357 10.4714C24.3566 10.4719 24.3574 10.471 24.357 10.4714C23.4244 11.4084 22.8995 12.678 22.8995 14C22.8995 15.322 23.4231 16.5903 24.3557 17.5272C24.3552 17.5268 24.3561 17.5277 24.3557 17.5272L26 19.1716L27.6444 17.5272ZM18 16.8284L16.357 18.4714C16.3566 18.4719 16.3574 18.471 16.357 18.4714C15.4244 19.4084 14.8995 20.6779 14.8995 22C14.8995 23.3221 15.4231 24.5904 16.3559 25.5274C16.3555 25.5271 16.3562 25.5278 16.3559 25.5274L18 27.1716L19.643 25.5286C20.5756 24.5916 21.1005 23.3221 21.1005 22C21.1005 20.6779 20.5769 19.4096 19.6441 18.4726C19.6438 18.4722 19.6445 18.4729 19.6441 18.4726L18 16.8284ZM10 24.8284L8.35699 26.4714C8.35659 26.4718 8.3574 26.471 8.35699 26.4714C7.42433 27.4084 6.89948 28.6779 6.89948 30C6.89948 31.3221 7.42311 32.5904 8.35577 33.5273C8.35536 33.5269 8.35618 33.5278 8.35577 33.5273L10 35.1716L11.643 33.5286C12.5757 32.5916 13.1005 31.3221 13.1005 30C13.1005 28.6779 12.5769 27.4096 11.6441 26.4726C11.6438 26.4722 11.6445 26.4729 11.6441 26.4726L10 24.8284Z" fill="#6E3708"/>
<path fill-rule="evenodd" clip-rule="evenodd" d="M30.4714 20.3569C30.471 20.3573 30.4718 20.3565 30.4714 20.3569L28.8284 21.9999L30.4714 23.6429C30.471 23.6425 30.4718 23.6434 30.4714 23.6429C31.4084 24.5756 32.6779 25.1005 34 25.1005C35.322 25.1005 36.5903 24.5769 37.5272 23.6443C37.5268 23.6447 37.5277 23.6438 37.5272 23.6443L39.1716 21.9999L37.5286 20.3569C37.5281 20.3565 37.529 20.3574 37.5286 20.3569C36.5916 19.4243 35.3221 18.8994 34 18.8994C32.6779 18.8994 31.4084 19.4243 30.4714 20.3569ZM24.3039 23.0606C23.82 22.2884 23.914 21.2575 24.5858 20.5857L27.6486 17.5229C29.3354 15.8428 31.6192 14.8994 34 14.8994C36.3808 14.8994 38.6646 15.8428 40.3514 17.5229L40.3542 17.5257L43.4142 20.5857C43.7893 20.9608 44 21.4695 44 21.9999C44 22.5304 43.7893 23.0391 43.4142 23.4142L40.3542 26.4742L40.3514 26.4769C39.0708 27.7525 37.4461 28.6034 35.6961 28.9392C36.18 29.7115 36.086 30.7423 35.4142 31.4142L32.3542 34.4742L32.3514 34.4769C31.0708 35.7525 29.4461 36.6034 27.6961 36.9392C28.18 37.7115 28.086 38.7423 27.4142 39.4142L24.3542 42.4742L24.3514 42.4769C22.6646 44.1571 20.3808 45.1005 18 45.1005C15.6192 45.1005 13.3354 44.1571 11.6486 42.4769L11.6458 42.4742L8.58579 39.4142C7.80474 38.6331 7.80474 37.3668 8.58579 36.5857L11.6458 33.5257L11.6486 33.5229C12.9292 32.2474 14.5539 31.3965 16.3039 31.0606C15.82 30.2884 15.914 29.2575 16.5858 28.5857L19.6486 25.5229C20.9292 24.2474 22.5539 23.3965 24.3039 23.0606ZM29.5274 28.3558C28.5904 27.4231 27.3221 26.8994 26 26.8994C24.6779 26.8994 23.4096 27.4231 22.4726 28.3558C22.4722 28.3562 22.4729 28.3554 22.4726 28.3558L20.8284 29.9999L22.4714 31.6429C22.471 31.6425 22.4719 31.6434 22.4714 31.6429C23.4084 32.5756 24.678 33.1005 26 33.1005C27.3221 33.1005 28.5904 32.5768 29.5274 31.6441C29.5271 31.6444 29.5278 31.6437 29.5274 31.6441L31.1716 29.9999L29.5274 28.3558C29.5278 28.3562 29.5271 28.3554 29.5274 28.3558ZM21.527 36.3554C20.5901 35.4229 19.322 34.8994 18 34.8994C16.678 34.8994 15.4098 35.423 14.4729 36.3555C14.4724 36.356 14.4719 36.3565 14.4714 36.3569L12.8284 37.9999L14.4714 39.6429C14.4719 39.6434 14.4724 39.6439 14.4729 39.6444C15.4098 40.5769 16.678 41.1005 18 41.1005C19.322 41.1005 20.5901 40.5769 21.527 39.6445C21.5276 39.644 21.5281 39.6435 21.5286 39.6429L23.1716 37.9999L21.5286 36.3569C21.5281 36.3564 21.5276 36.3559 21.527 36.3554Z" fill="#6E3708"/>
</svg>
