<svg width="48" height="48" viewBox="0 0 48 48" fill="none" xmlns="http://www.w3.org/2000/svg">
<path d="M44 4H4C3.46957 4 2.96086 4.21071 2.58579 4.58579C2.21071 4.96086 2 5.46957 2 6V14C2.00348 15.2379 2.38976 16.4444 3.10588 17.4541C3.822 18.4639 4.8329 19.2274 6 19.64V42C6 42.5304 6.21071 43.0391 6.58579 43.4142C6.96086 43.7893 7.46957 44 8 44H40C40.5304 44 41.0391 43.7893 41.4142 43.4142C41.7893 43.0391 42 42.5304 42 42V19.64C43.1671 19.2274 44.178 18.4639 44.8941 17.4541C45.6102 16.4444 45.9965 15.2379 46 14V6C46 5.46957 45.7893 4.96086 45.4142 4.58579C45.0391 4.21071 44.5304 4 44 4ZM30 8H34V14C34 14.5304 33.7893 15.0391 33.4142 15.4142C33.0391 15.7893 32.5304 16 32 16C31.4696 16 30.9609 15.7893 30.5858 15.4142C30.2107 15.0391 30 14.5304 30 14V8ZM22 8H26V14C26 14.5304 25.7893 15.0391 25.4142 15.4142C25.0391 15.7893 24.5304 16 24 16C23.4696 16 22.9609 15.7893 22.5858 15.4142C22.2107 15.0391 22 14.5304 22 14V8ZM14 8H18V14C18 14.5304 17.7893 15.0391 17.4142 15.4142C17.0391 15.7893 16.5304 16 16 16C15.4696 16 14.9609 15.7893 14.5858 15.4142C14.2107 15.0391 14 14.5304 14 14V8ZM8 16C7.46957 16 6.96086 15.7893 6.58579 15.4142C6.21071 15.0391 6 14.5304 6 14V8H10V14C10 14.5304 9.78929 15.0391 9.41421 15.4142C9.03914 15.7893 8.53043 16 8 16ZM28 40H20V32C20 30.9391 20.4214 29.9217 21.1716 29.1716C21.9217 28.4214 22.9391 28 24 28C25.0609 28 26.0783 28.4214 26.8284 29.1716C27.5786 29.9217 28 30.9391 28 32V40ZM38 40H32V32C32 29.8783 31.1571 27.8434 29.6569 26.3431C28.1566 24.8429 26.1217 24 24 24C21.8783 24 19.8434 24.8429 18.3431 26.3431C16.8429 27.8434 16 29.8783 16 32V40H10V19.64C10.7351 19.3671 11.4133 18.9602 12 18.44C13.1 19.4239 14.5241 19.9679 16 19.9679C17.4759 19.9679 18.9 19.4239 20 18.44C21.1 19.4239 22.5241 19.9679 24 19.9679C25.4759 19.9679 26.9 19.4239 28 18.44C29.1 19.4239 30.5241 19.9679 32 19.9679C33.4759 19.9679 34.9 19.4239 36 18.44C36.5867 18.9602 37.2649 19.3671 38 19.64V40ZM42 14C42 14.5304 41.7893 15.0391 41.4142 15.4142C41.0391 15.7893 40.5304 16 40 16C39.4696 16 38.9609 15.7893 38.5858 15.4142C38.2107 15.0391 38 14.5304 38 14V8H42V14Z" fill="#6E3708"/>
</svg>
