<svg width="80" height="80" viewBox="0 0 80 80" fill="none" xmlns="http://www.w3.org/2000/svg">
<path d="M49.0667 29.3L34.7667 43.6333L29.2667 38.1333C28.9678 37.7844 28.6001 37.501 28.1866 37.3009C27.773 37.1008 27.3226 36.9884 26.8635 36.9706C26.4045 36.9529 25.9467 37.0303 25.5189 37.1978C25.0912 37.3654 24.7027 37.6196 24.3778 37.9445C24.053 38.2693 23.7988 38.6578 23.6312 39.0856C23.4636 39.5133 23.3863 39.9711 23.404 40.4301C23.4217 40.8892 23.5342 41.3396 23.7343 41.7532C23.9343 42.1667 24.2177 42.5345 24.5667 42.8333L32.4 50.7C32.7115 51.0089 33.0809 51.2533 33.487 51.4192C33.8931 51.5851 34.328 51.6692 34.7667 51.6666C35.6411 51.6629 36.4791 51.3158 37.1 50.7L53.7667 34.0333C54.0791 33.7234 54.3271 33.3547 54.4963 32.9485C54.6655 32.5424 54.7527 32.1067 54.7527 31.6666C54.7527 31.2266 54.6655 30.7909 54.4963 30.3847C54.3271 29.9785 54.0791 29.6098 53.7667 29.3C53.1421 28.6791 52.2973 28.3307 51.4167 28.3307C50.5361 28.3307 49.6912 28.6791 49.0667 29.3ZM40 6.66663C33.4073 6.66663 26.9626 8.62159 21.481 12.2843C15.9994 15.947 11.7269 21.153 9.20402 27.2438C6.6811 33.3347 6.02099 40.0369 7.30716 46.503C8.59334 52.969 11.768 58.9084 16.4298 63.5702C21.0915 68.2319 27.031 71.4066 33.497 72.6928C39.963 73.979 46.6652 73.3189 52.7561 70.796C58.847 68.273 64.0529 64.0006 67.7157 58.519C71.3784 53.0373 73.3333 46.5927 73.3333 40C73.3333 35.6226 72.4711 31.288 70.796 27.2438C69.1208 23.1997 66.6655 19.525 63.5702 16.4297C60.4749 13.3344 56.8003 10.8791 52.7561 9.20398C48.7119 7.52882 44.3774 6.66663 40 6.66663ZM40 66.6666C34.7258 66.6666 29.5701 65.1027 25.1848 62.1725C20.7995 59.2423 17.3816 55.0775 15.3632 50.2049C13.3449 45.3322 12.8168 39.9704 13.8457 34.7976C14.8747 29.6247 17.4144 24.8732 21.1438 21.1438C24.8732 17.4144 29.6248 14.8746 34.7976 13.8457C39.9704 12.8167 45.3322 13.3448 50.2049 15.3632C55.0776 17.3815 59.2424 20.7994 62.1725 25.1848C65.1027 29.5701 66.6667 34.7258 66.6667 40C66.6667 47.0724 63.8572 53.8552 58.8562 58.8561C53.8552 63.8571 47.0724 66.6666 40 66.6666Z" fill="#6BBC24"/>
</svg>
