<svg width="80" height="80" viewBox="0 0 80 80" fill="none" xmlns="http://www.w3.org/2000/svg">
<path d="M36.6667 30H50C50.884 30 51.7319 29.6488 52.357 29.0237C52.9821 28.3986 53.3333 27.5508 53.3333 26.6667C53.3333 25.7827 52.9821 24.9348 52.357 24.3097C51.7319 23.6846 50.884 23.3334 50 23.3334H43.3333V20C43.3333 19.116 42.9821 18.2681 42.357 17.643C41.7319 17.0179 40.884 16.6667 40 16.6667C39.1159 16.6667 38.2681 17.0179 37.643 17.643C37.0179 18.2681 36.6667 19.116 36.6667 20V23.3334C34.0145 23.3334 31.471 24.3869 29.5956 26.2623C27.7202 28.1377 26.6667 30.6812 26.6667 33.3334C26.6667 35.9855 27.7202 38.5291 29.5956 40.4044C31.471 42.2798 34.0145 43.3334 36.6667 43.3334H43.3333C44.2174 43.3334 45.0652 43.6846 45.6903 44.3097C46.3155 44.9348 46.6667 45.7826 46.6667 46.6667C46.6667 47.5508 46.3155 48.3986 45.6903 49.0237C45.0652 49.6488 44.2174 50 43.3333 50H30C29.1159 50 28.2681 50.3512 27.643 50.9764C27.0179 51.6015 26.6667 52.4493 26.6667 53.3334C26.6667 54.2174 27.0179 55.0653 27.643 55.6904C28.2681 56.3155 29.1159 56.6667 30 56.6667H36.6667V60C36.6667 60.8841 37.0179 61.7319 37.643 62.3571C38.2681 62.9822 39.1159 63.3334 40 63.3334C40.884 63.3334 41.7319 62.9822 42.357 62.3571C42.9821 61.7319 43.3333 60.8841 43.3333 60V56.6667C45.9855 56.6667 48.529 55.6131 50.4044 53.7378C52.2798 51.8624 53.3333 49.3189 53.3333 46.6667C53.3333 44.0145 52.2798 41.471 50.4044 39.5956C48.529 37.7203 45.9855 36.6667 43.3333 36.6667H36.6667C35.7826 36.6667 34.9348 36.3155 34.3096 35.6904C33.6845 35.0653 33.3333 34.2174 33.3333 33.3334C33.3333 32.4493 33.6845 31.6015 34.3096 30.9764C34.9348 30.3512 35.7826 30 36.6667 30ZM40 3.33337C32.748 3.33337 25.6589 5.48384 19.6291 9.51282C13.5993 13.5418 8.89963 19.2684 6.12441 25.9683C3.3492 32.6683 2.62308 40.0407 4.03787 47.1534C5.45266 54.266 8.94482 60.7994 14.0727 65.9273C19.2007 71.0552 25.734 74.5474 32.8467 75.9622C39.9593 77.377 47.3318 76.6508 54.0317 73.8756C60.7317 71.1004 66.4582 66.4007 70.4872 60.3709C74.5162 54.3411 76.6667 47.252 76.6667 40C76.6667 30.2754 72.8036 20.9491 65.9272 14.0728C59.0509 7.19646 49.7246 3.33337 40 3.33337ZM40 70C34.0666 70 28.2664 68.2406 23.3329 64.9441C18.3994 61.6477 14.5542 56.9623 12.2836 51.4805C10.013 45.9988 9.41888 39.9668 10.5764 34.1473C11.734 28.3279 14.5912 22.9824 18.7868 18.7868C22.9824 14.5913 28.3279 11.734 34.1473 10.5765C39.9667 9.41893 45.9987 10.013 51.4805 12.2837C56.9623 14.5543 61.6476 18.3995 64.9441 23.3329C68.2405 28.2664 70 34.0666 70 40C70 47.9565 66.8393 55.5872 61.2132 61.2132C55.5871 66.8393 47.9565 70 40 70Z" fill="#6BBC24"/>
</svg>
