<svg width="80" height="80" viewBox="0 0 80 80" fill="none" xmlns="http://www.w3.org/2000/svg">
<path d="M25.8594 35.8593C27.8372 35.8593 29.7706 35.2728 31.4151 34.174C33.0595 33.0752 34.3413 31.5134 35.0982 29.6862C35.855 27.8589 36.0531 25.8482 35.6672 23.9084C35.2814 21.9686 34.3289 20.1868 32.9304 18.7883C31.5319 17.3897 29.7501 16.4373 27.8103 16.0515C25.8704 15.6656 23.8598 15.8636 22.0325 16.6205C20.2053 17.3774 18.6435 18.6591 17.5447 20.3036C16.4458 21.9481 15.8594 23.8815 15.8594 25.8593C15.8622 28.5106 16.9167 31.0525 18.7915 32.9272C20.6662 34.8019 23.2081 35.8564 25.8594 35.8593ZM25.8594 22.526C26.5186 22.526 27.1631 22.7215 27.7113 23.0878C28.2594 23.454 28.6867 23.9746 28.939 24.5837C29.1912 25.1928 29.2573 25.863 29.1286 26.5096C29 27.1562 28.6826 27.7502 28.2164 28.2163C27.7502 28.6825 27.1563 29 26.5097 29.1286C25.8631 29.2572 25.1928 29.1912 24.5837 28.9389C23.9747 28.6866 23.4541 28.2594 23.0878 27.7112C22.7215 27.1631 22.526 26.5186 22.526 25.8593C22.5266 24.9754 22.878 24.1279 23.503 23.503C24.128 22.878 24.9755 22.5266 25.8594 22.526ZM54.1406 44.1406C52.1628 44.1406 50.2294 44.7271 48.5849 45.8259C46.9404 46.9247 45.6587 48.4865 44.9018 50.3138C44.1449 52.141 43.9469 54.1517 44.3328 56.0915C44.7186 58.0313 45.671 59.8131 47.0696 61.2117C48.4681 62.6102 50.2499 63.5626 52.1897 63.9484C54.1295 64.3343 56.1402 64.1363 57.9675 63.3794C59.7947 62.6225 61.3565 61.3408 62.4553 59.6963C63.5541 58.0518 64.1406 56.1184 64.1406 54.1406C64.1377 51.4893 63.0832 48.9475 61.2085 47.0727C59.3338 45.198 56.7919 44.1435 54.1406 44.1406ZM54.1406 57.4739C53.4813 57.4739 52.8369 57.2784 52.2887 56.9122C51.7406 56.5459 51.3133 56.0253 51.061 55.4162C50.8087 54.8071 50.7427 54.1369 50.8713 53.4903C51 52.8437 51.3174 52.2497 51.7836 51.7836C52.2498 51.3174 52.8437 50.9999 53.4903 50.8713C54.1369 50.7427 54.8071 50.8087 55.4162 51.061C56.0253 51.3133 56.5459 51.7405 56.9122 52.2887C57.2785 52.8369 57.474 53.4813 57.474 54.1406C57.4734 55.0245 57.122 55.872 56.497 56.497C55.872 57.1219 55.0245 57.4733 54.1406 57.4739ZM65.69 14.31C65.3806 14.0004 65.0131 13.7548 64.6088 13.5872C64.2044 13.4196 63.7709 13.3334 63.3332 13.3334C62.8955 13.3334 62.4621 13.4196 62.0577 13.5872C61.6533 13.7548 61.2859 14.0004 60.9765 14.31L14.3098 60.9766C13.9971 61.2854 13.7486 61.653 13.5785 62.0582C13.4084 62.4634 13.3201 62.8982 13.3188 63.3377C13.3174 63.7772 13.4029 64.2125 13.5705 64.6188C13.738 65.0251 13.9843 65.3942 14.295 65.7049C14.6058 66.0157 14.9749 66.2619 15.3812 66.4294C15.7874 66.5969 16.2228 66.6825 16.6623 66.6811C17.1017 66.6797 17.5366 66.5914 17.9418 66.4213C18.347 66.2512 18.7145 66.0027 19.0233 65.69L65.69 19.0233C65.9996 18.7139 66.2451 18.3465 66.4127 17.9421C66.5802 17.5377 66.6665 17.1043 66.6665 16.6666C66.6665 16.2289 66.5802 15.7955 66.4127 15.3911C66.2451 14.9868 65.9996 14.6194 65.69 14.31Z" fill="#6BBC24"/>
</svg>
