<svg width="80" height="80" viewBox="0 0 80 80" fill="none" xmlns="http://www.w3.org/2000/svg">
<path d="M40 6.66663C31.4546 6.691 23.245 9.99634 17.0667 15.9V9.99996C17.0667 9.1159 16.7155 8.26806 16.0904 7.64294C15.4652 7.01782 14.6174 6.66663 13.7333 6.66663C12.8493 6.66663 12.0014 7.01782 11.3763 7.64294C10.7512 8.26806 10.4 9.1159 10.4 9.99996V25C10.4 25.884 10.7512 26.7319 11.3763 27.357C12.0014 27.9821 12.8493 28.3333 13.7333 28.3333H28.7333C29.6174 28.3333 30.4652 27.9821 31.0904 27.357C31.7155 26.7319 32.0667 25.884 32.0667 25C32.0667 24.1159 31.7155 23.2681 31.0904 22.6429C30.4652 22.0178 29.6174 21.6666 28.7333 21.6666H20.7333C25.0193 17.1878 30.7317 14.3421 36.8885 13.6189C43.0452 12.8956 49.2616 14.3399 54.4689 17.7034C59.6761 21.067 63.5488 26.1397 65.4211 32.0493C67.2934 37.9589 67.0484 44.3361 64.7281 50.0846C62.4078 55.8331 58.1572 60.5936 52.7072 63.5477C47.2572 66.5017 40.9483 67.4647 34.8652 66.2711C28.7821 65.0774 23.3049 61.8018 19.3753 57.0073C15.4457 52.2128 13.3093 46.199 13.3333 40C13.3333 39.1159 12.9821 38.2681 12.357 37.6429C11.7319 37.0178 10.8841 36.6666 10 36.6666C9.11595 36.6666 8.2681 37.0178 7.64298 37.6429C7.01786 38.2681 6.66667 39.1159 6.66667 40C6.66667 46.5927 8.62164 53.0373 12.2844 58.519C15.9471 64.0006 21.153 68.273 27.2439 70.796C33.3348 73.3189 40.037 73.979 46.503 72.6928C52.9691 71.4066 58.9085 68.2319 63.5702 63.5702C68.232 58.9084 71.4067 52.969 72.6929 46.503C73.979 40.0369 73.3189 33.3347 70.796 27.2438C68.2731 21.153 64.0007 15.947 58.519 12.2843C53.0374 8.62159 46.5927 6.66663 40 6.66663ZM40 26.6666C39.116 26.6666 38.2681 27.0178 37.643 27.6429C37.0179 28.2681 36.6667 29.1159 36.6667 30V40C36.6667 40.884 37.0179 41.7319 37.643 42.357C38.2681 42.9821 39.116 43.3333 40 43.3333H46.6667C47.5507 43.3333 48.3986 42.9821 49.0237 42.357C49.6488 41.7319 50 40.884 50 40C50 39.1159 49.6488 38.2681 49.0237 37.6429C48.3986 37.0178 47.5507 36.6666 46.6667 36.6666H43.3333V30C43.3333 29.1159 42.9822 28.2681 42.357 27.6429C41.7319 27.0178 40.8841 26.6666 40 26.6666Z" fill="#6BBC24"/>
</svg>
